HIERARCHY
ROOT Hips
{
	OFFSET -14.64140 90.27770 -84.91600
	CHANNELS 6 Xposition Yposition Zposition Zrotation Xrotation Yrotation
	JOINT Spine
	{
		OFFSET 0.00000 13.20850 -1.60436
		CHANNELS 3 Zrotation Xrotation Yrotation
		JOINT Spine1
		{
			OFFSET 0.00000 8.61716 0.00000
			CHANNELS 3 Zrotation Xrotation Yrotation
			JOINT Spine2
			{
				OFFSET 0.00000 8.61717 0.00000
				CHANNELS 3 Zrotation Xrotation Yrotation
				JOINT Spine3
				{
					OFFSET 0.00000 8.61717 0.00000
					CHANNELS 3 Zrotation Xrotation Yrotation
					JOINT Neck
					{
						OFFSET 0.00000 11.07920 1.10792
						CHANNELS 3 Zrotation Xrotation Yrotation
						JOINT Neck1
						{
							OFFSET 0.00000 7.08032 0.00000
							CHANNELS 3 Zrotation Xrotation Yrotation
							JOINT Head
							{
								OFFSET 0.00000 7.08031 0.00000
								CHANNELS 3 Zrotation Xrotation Yrotation
								End site
								{
									OFFSET 0.00000 0.00000 0.00000
								}
							}
						}
					}
					JOINT RightShoulder
					{
						OFFSET -0.01000 7.91373 5.19711
						CHANNELS 3 Zrotation Xrotation Yrotation
						JOINT RightArm
						{
							OFFSET -18.41580 0.00000 0.00000
							CHANNELS 3 Zrotation Xrotation Yrotation
							JOINT RightForeArm
							{
								OFFSET -29.11090 0.00000 0.00000
								CHANNELS 3 Zrotation Xrotation Yrotation
								JOINT RightHand
								{
									OFFSET -24.65040 0.00000 0.00000
									CHANNELS 3 Zrotation Xrotation Yrotation
									JOINT RightHandThumb1
									{
										OFFSET -5.35114 -0.85590 3.97906
										CHANNELS 3 Zrotation Xrotation Yrotation
										JOINT RightHandThumb2
										{
											OFFSET -4.52789 0.00000 0.00000
											CHANNELS 3 Zrotation Xrotation Yrotation
											JOINT RightHandThumb3
											{
												OFFSET -2.46976 0.00000 0.00000
												CHANNELS 3 Zrotation Xrotation Yrotation
												End site
												{
													OFFSET 0.00000 0.00000 0.00000
												}
											}
										}
									}
									JOINT RightHandIndex1
									{
										OFFSET -14.26970 0.00000 2.88139
										CHANNELS 3 Zrotation Xrotation Yrotation
										JOINT RightHandIndex2
										{
											OFFSET -5.48836 0.00000 0.00000
											CHANNELS 3 Zrotation Xrotation Yrotation
											JOINT RightHandIndex3
											{
												OFFSET -3.01859 0.00000 0.00000
												CHANNELS 3 Zrotation Xrotation Yrotation
												End site
												{
													OFFSET 0.00000 0.00000 0.00000
												}
											}
										}
									}
									JOINT RightHandMiddle1
									{
										OFFSET -14.26970 0.00000 -0.09147
										CHANNELS 3 Zrotation Xrotation Yrotation
										JOINT RightHandMiddle2
										{
											OFFSET -6.17441 0.00000 0.00000
											CHANNELS 3 Zrotation Xrotation Yrotation
											JOINT RightHandMiddle3
											{
												OFFSET -3.56743 0.00000 0.00000
												CHANNELS 3 Zrotation Xrotation Yrotation
												End site
												{
													OFFSET 0.00000 0.00000 0.00000
												}
											}
										}
									}
									JOINT RightHandRing1
									{
										OFFSET -12.69180 0.00000 -3.06433
										CHANNELS 3 Zrotation Xrotation Yrotation
										JOINT RightHandRing2
										{
											OFFSET -5.62556 0.00000 0.00000
											CHANNELS 3 Zrotation Xrotation Yrotation
											JOINT RightHandRing3
											{
												OFFSET -3.56744 0.00000 0.00000
												CHANNELS 3 Zrotation Xrotation Yrotation
												End site
												{
													OFFSET 0.00000 0.00000 0.00000
												}
											}
										}
									}
									JOINT RightHandPinky1
									{
										OFFSET -11.11390 0.00000 -6.03719
										CHANNELS 3 Zrotation Xrotation Yrotation
										JOINT RightHandPinky2
										{
											OFFSET -4.52789 0.00000 0.00000
											CHANNELS 3 Zrotation Xrotation Yrotation
											JOINT RightHandPinky3
											{
												OFFSET -2.46976 0.00000 0.00000
												CHANNELS 3 Zrotation Xrotation Yrotation
												End site
												{
													OFFSET 0.00000 0.00000 0.00000
												}
											}
										}
									}
								}
							}
						}
					}
					JOINT LeftShoulder
					{
						OFFSET 0.01000 7.91373 5.19711
						CHANNELS 3 Zrotation Xrotation Yrotation
						JOINT LeftArm
						{
							OFFSET 18.41580 0.00000 0.00000
							CHANNELS 3 Zrotation Xrotation Yrotation
							JOINT LeftForeArm
							{
								OFFSET 29.11090 0.00000 0.00000
								CHANNELS 3 Zrotation Xrotation Yrotation
								JOINT LeftHand
								{
									OFFSET 24.65040 0.00000 0.00000
									CHANNELS 3 Zrotation Xrotation Yrotation
									JOINT LeftHandThumb1
									{
										OFFSET 5.35114 -0.85590 3.97906
										CHANNELS 3 Zrotation Xrotation Yrotation
										JOINT LeftHandThumb2
										{
											OFFSET 4.52789 0.00000 0.00000
											CHANNELS 3 Zrotation Xrotation Yrotation
											JOINT LeftHandThumb3
											{
												OFFSET 2.46977 0.00000 0.00000
												CHANNELS 3 Zrotation Xrotation Yrotation
												End site
												{
													OFFSET 0.00000 0.00000 0.00000
												}
											}
										}
									}
									JOINT LeftHandIndex1
									{
										OFFSET 14.26970 0.00000 2.88139
										CHANNELS 3 Zrotation Xrotation Yrotation
										JOINT LeftHandIndex2
										{
											OFFSET 5.48836 0.00000 0.00000
											CHANNELS 3 Zrotation Xrotation Yrotation
											JOINT LeftHandIndex3
											{
												OFFSET 3.01859 0.00000 0.00000
												CHANNELS 3 Zrotation Xrotation Yrotation
												End site
												{
													OFFSET 0.00000 0.00000 0.00000
												}
											}
										}
									}
									JOINT LeftHandMiddle1
									{
										OFFSET 14.26970 0.00000 -0.09147
										CHANNELS 3 Zrotation Xrotation Yrotation
										JOINT LeftHandMiddle2
										{
											OFFSET 6.17440 0.00000 0.00000
											CHANNELS 3 Zrotation Xrotation Yrotation
											JOINT LeftHandMiddle3
											{
												OFFSET 3.56744 0.00000 0.00000
												CHANNELS 3 Zrotation Xrotation Yrotation
												End site
												{
													OFFSET 0.00000 0.00000 0.00000
												}
											}
										}
									}
									JOINT LeftHandRing1
									{
										OFFSET 12.69180 0.00000 -3.06433
										CHANNELS 3 Zrotation Xrotation Yrotation
										JOINT LeftHandRing2
										{
											OFFSET 5.62556 0.00000 0.00000
											CHANNELS 3 Zrotation Xrotation Yrotation
											JOINT LeftHandRing3
											{
												OFFSET 3.56744 0.00000 0.00000
												CHANNELS 3 Zrotation Xrotation Yrotation
												End site
												{
													OFFSET 0.00000 0.00000 0.00000
												}
											}
										}
									}
									JOINT LeftHandPinky1
									{
										OFFSET 11.11390 0.00000 -6.03719
										CHANNELS 3 Zrotation Xrotation Yrotation
										JOINT LeftHandPinky2
										{
											OFFSET 4.52789 0.00000 0.00000
											CHANNELS 3 Zrotation Xrotation Yrotation
											JOINT LeftHandPinky3
											{
												OFFSET 2.46976 0.00000 0.00000
												CHANNELS 3 Zrotation Xrotation Yrotation
												End site
												{
													OFFSET 0.00000 0.00000 0.00000
												}
											}
										}
									}
								}
							}
						}
					}
					JOINT pCube4
					{
						OFFSET 0.00000 10.91090 1.10792
						CHANNELS 3 Zrotation Xrotation Yrotation
						End site
						{
							OFFSET 0.00000 0.00000 0.00000
						}
					}
				}
			}
		}
	}
	JOINT RightUpLeg
	{
		OFFSET -9.98441 0.00000 0.00000
		CHANNELS 3 Zrotation Xrotation Yrotation
		JOINT RightLeg
		{
			OFFSET 0.00000 -42.11790 0.00000
			CHANNELS 3 Zrotation Xrotation Yrotation
			JOINT RightFoot
			{
				OFFSET 0.00000 -45.00020 -0.00001
				CHANNELS 3 Zrotation Xrotation Yrotation
				JOINT RightForeFoot
				{
					OFFSET 0.00000 -3.74820 0.00000
					CHANNELS 3 Zrotation Xrotation Yrotation
					JOINT RightToeBase
					{
						OFFSET 0.00000 0.06325 14.43120
						CHANNELS 3 Zrotation Xrotation Yrotation
						End site
						{
							OFFSET 0.00000 0.00000 0.00000
						}
					}
				}
			}
		}
	}
	JOINT LeftUpLeg
	{
		OFFSET 9.98441 0.00000 0.00000
		CHANNELS 3 Zrotation Xrotation Yrotation
		JOINT LeftLeg
		{
			OFFSET 0.00000 -42.11800 0.00000
			CHANNELS 3 Zrotation Xrotation Yrotation
			JOINT LeftFoot
			{
				OFFSET 0.00000 -45.00070 0.00000
				CHANNELS 3 Zrotation Xrotation Yrotation
				JOINT LeftForeFoot
				{
					OFFSET 0.00000 -3.74824 0.00000
					CHANNELS 3 Zrotation Xrotation Yrotation
					JOINT LeftToeBase
					{
						OFFSET 0.00000 0.06325 14.43110
						CHANNELS 3 Zrotation Xrotation Yrotation
						End site
						{
							OFFSET 0.00000 0.00000 0.00000
						}
					}
				}
			}
		}
	}
}
MOTION
Frames: 4
Frame Time: 0.050000
0.0072635802070318035 -0.03635239433712361 -0.04664597208183243 0.01417342658602773 -0.04777973438294677 -0.022341180129803864 -4.702212105950804 7.430880964981702 -0.5045032564885675 -0.7524425312856273 2.8520973827037777 0.350448179893154 -0.9334530119534707 0.004774374661576177 -1.2641661398728365 -1.2557698986734003 0.27764094511013526 -1.0016025068489942 -1.0440497039297307 8.663215594880432 2.3769099892485337 -0.12817550857169888 -0.8437563230831392 2.320370117263394 -0.7374277987578324 -14.81117661066298 0.2994087143731375 2.9293665110984453 0.11977007351017725 -8.189397101665499 68.62939443104301 4.177773894639217 42.02204213415958 45.70228054333131 13.540963010643193 101.84908789552108 29.00253512039217 0.5197420050687099 -15.226049715848696 4.479574284344006 -0.1580091704438512 -1.5858575513245026 0.029462083292043445 -0.04960249361229596 -56.24845950260448 0.007462300343451963 0.016287653614677804 -56.213417373057766 -38.748405245843784 0.005582679008560334 0.022491439591924723 0.03717135448525602 0.026482607462555166 -0.042608912576744006 0.014308316094424204 -0.048258237521370505 0.04926940966587391 -36.71890066932649 0.03603462347760426 0.014816666245393025 -0.024005343719166215 -0.01728561992762027 -0.020306037605729473 -0.0084869874090575 0.01658901718583374 -0.04814025204882108 -19.762974308142965 -0.0458080569875241 0.03858860567539756 0.014589987242252635 0.015798421866209902 -0.04723658222698094 -0.04279848620486676 -0.0049740697597812356 0.00029265017363206504 24.04444845739172 0.014956870154283297 -0.0030186346536935234 28.847099137221658 -0.00910028426307782 -0.030445858171360935 28.822765603244545 0.019923686229582346 0.018508968373007757 0.25063145868226416 0.5636618909595854 7.578130400099103 -62.957727847243326 18.865277573706162 -39.61906581342924 -57.671575214424905 15.997370310893785 -109.92966271675989 -25.793501943558436 -7.439560740105983 5.307452021165668 -0.5026799921711843 0.033301431988189925 -8.102614175317562 -0.020766168488510255 -0.022561693830291125 44.599774968431774 0.04581927764466376 0.004321783549234195 44.534434311971786 12.467581607929688 -0.0276930473149703 -0.03624518115414103 0.015117758841244921 0.030499637725717198 0.0344635155133421 -0.01847260589909281 0.019454124610253434 -0.027867017123492994 11.120937993285626 -0.04110896880939423 -0.015287102644611366 0.03695385163450499 0.01995949071608538 -0.013025717445947355 -0.0021450859449509523 -0.04736457308783787 0.013839865836229913 4.743548024466979 -0.03760988252714828 0.02916622664546976 -0.04668755734639195 -0.02056305138644593 -0.029692299932921787 0.0017090547356607166 0.0268951773527337 0.042826650895564256 -5.619299307775379 -0.0052972781914226745 0.016082110776171842 -6.7605968785037875 0.009998080226570828 0.018988137691991893 -6.68564363457518 0.002276549404389818 0.01712230257221012 0.04042115929402862 0.015715180289449047 0.019117368729288403 8.03994022140429 3.4492088998963863 -19.23887250561922 -0.0014000819347627289 10.355784742700264 0.030210453130458205 -5.645758433110413 -15.70287402553165 3.190653536504371 -0.02806169738219119 0.0022328362156337853 0.02921283111665842 -0.03459616794515607 4.687611593039068 0.020028188456869003 12.507263607109836 -8.27304724467865 6.903510188625336 0.04520763084789345 46.32944034827412 -0.024943950719291723 -4.311504126118047 -14.704048999018946 -3.8176916606793494 0.02081373792041951 0.004926788740698295 0.024494147819039254 -0.013287884840166244 -10.754435087291816 -0.008557240121579397 
-0.010031655125646126 0.008624970118193053 0.00542469812973425 -0.0021008351280743104 0.013022236781789417 -0.005968578657450031 -4.877092032156891 7.508483471453711 -0.48131336128752433 -0.7221804033720575 2.8903126612801313 0.36116923193235 -0.9448874236832486 -0.1003148705495786 -1.2710887826970902 -1.4218128776588999 0.3001864518100648 -1.0077106726764637 -0.9925612000855178 8.834867302817901 2.410249451756613 -0.12471392403852855 -0.7731849717988535 2.3413869742131106 -0.6678656786367508 -14.702128193181407 0.22688948505044745 2.4195593396329413 0.2943770508490908 -8.141808033812548 67.81127836877869 0.8003749509348911 44.86580528778596 43.589380563134256 12.767672069949489 102.06232600909415 29.361677847241474 0.4706203202900747 -15.008540283762557 4.544407820284238 -0.09179215483870357 -1.6409369474877915 -0.004386576122288497 -0.010772120329058351 -56.18960690204606 -0.0004363506367080182 0.02100154999741039 -56.27082045812322 -38.72956393319581 0.007755290694189633 0.04649039509848826 0.004439495451691235 0.02441603554926769 -0.03450599617095766 4.8227342774855847e-05 0.0032962372781723537 0.02908890835320717 -36.68619193814042 -0.04074464628031282 -0.042235407378100026 -0.047993353210357775 -0.01340690021555486 0.033403639788196875 0.039543154698416724 0.0014115600497798312 -0.01445410767374907 -19.780811807891855 -0.027441617964510237 -0.015116680848963369 -0.03416734841794539 0.04329240010376152 0.007276126747009787 0.017352230155974674 0.038630326745633776 0.009050531537366003 24.029408683489034 -0.032624157396382227 0.01619928942144594 28.870614254980428 0.00015560902842779554 -0.02041992476186901 28.913574205302638 0.008064732194026076 -0.012488998822408818 0.48825355281251165 0.59114486793407 7.528525215205508 -62.19591443309121 18.408728475530946 -41.32151086536017 -51.497110294279565 14.950229893117541 -108.13325270681608 -24.705217091478076 -6.711087657596404 4.561571731152608 -0.4352859090722592 0.05968629311543937 -8.075158583657938 0.010028468933299355 0.009214489687806002 44.579258181395154 -0.021974065855975354 -0.006705647524532038 44.57973191936764 12.454397044873625 -0.004010437328169269 -0.017335382942526154 -0.028093082783041803 0.037280358481499506 0.028219241578279514 0.012207367208809846 0.001859890300898789 0.04122864789316589 11.134304680158085 0.0026522875980571872 -0.02060008009466432 -0.018978312770139463 -0.04209322031152567 -0.009437603888830083 0.015409201585325966 -0.008734569660873034 0.02101417295190772 4.742686796947427 0.034046449477813046 -0.011653048139850708 -0.009079191203761737 9.830044647548717e-05 -0.009800154499148379 0.023980726500316234 -0.03951458721026243 0.02272730480522348 -5.642428515537946 0.024025196576822175 0.037958128909407376 -6.699258980102899 0.032621196696752286 -0.03718449037287114 -6.758542672902851 -0.04139679319747314 0.013934646572186873 -0.009853032843722572 0.022401802009725733 -0.04874647860714859 8.031195886582278 3.517150081149282 -19.20690488275871 -0.044261732860274565 10.399210143157188 -0.028314966853633484 -5.624870486426928 -15.673002863824532 3.194162765132534 -0.009430115346276802 -0.03527026313056528 0.015451137272389842 0.020204924386142967 4.686125806484971 -0.008354136730892392 12.491589793193965 -8.232997490431499 6.886075955675548 0.01634417584739646 46.41514351384328 -0.007920892346811247 -4.326913855374739 -14.760140878339508 -3.8211302185336313 -0.032665513571957024 0.01089041041539347 -0.03925260037640754 -0.03952823675221538 -10.783306933863386 0.009720577651726885 
0.03153898490431297 0.04798311647176293 -0.04762051161970086 0.026199439888907883 0.0238349894493445 0.01494170591908488 -4.948520712295131 7.569603086108525 -0.47076046388556675 -0.7259752120269262 2.8318415473949696 0.4123891146157765 -0.9921864308580324 -0.055982416228761926 -1.3029223514139914 -1.388185362463204 0.2413497540504092 -0.9782800901972571 -0.8046913560621493 8.893197573134145 2.2187939802486065 -0.09071840954256502 -0.6896185865036449 1.9116085699214596 -0.6405504403056347 -14.552322348234389 0.20337902142699663 2.322637540554466 0.30461704515179056 -8.199636460468568 66.60602312098617 -1.9174344928232665 46.03442409240092 41.358942394370914 12.440980940857374 102.76461375763088 29.93176139565214 0.5481560809665736 -14.959084098592772 4.528480521744506 -0.17562239511047154 -1.564993053118941 -0.011329203106225785 -0.021938679401837437 -56.21032580497003 -0.04748287144945602 -0.01598047535269646 -56.253316493536 -38.744058567198714 0.04457178833238217 -0.029669635255474038 0.009593199640077826 -0.04052622766159048 0.017055066500394112 -0.03005812554595128 0.0035693078152986488 0.03896013427863845 -36.713507277222035 -0.003669347816024961 0.03034317184539762 -0.019127536420250914 0.03998445171901668 0.02549273518707062 0.0012882238818574866 -0.012273465032312105 0.04109856942524796 -19.727400083317743 -0.02229746871802616 0.004006877414312471 0.0014066114923406306 -0.03268428791586536 -0.03835617213489717 -0.0012158471389070145 0.012800685572300945 0.02457919867840214 24.022448762391814 -0.007653393536339224 0.04734210252452709 28.841693186810684 -0.011831678220569634 0.034708483461740915 28.877791443696662 0.014144156982676369 0.01738818556227939 0.24990928636655324 0.5181547366173467 7.576458311959312 -61.113278514427684 18.98031196975234 -41.31604588164832 -43.95337600303273 13.702478017107959 -106.52386821456699 -24.021031673184986 -6.321693999762545 4.203637523324448 -0.5172472877605708 0.051495223343283325 -8.109805701535867 -0.047803633450545856 0.02456659171228222 44.535564932294996 -0.029739628220976918 -0.004018818094810758 44.578573823767755 12.432573830556167 0.026412972920967275 0.035110687514016636 0.006910195598491905 0.04344238513852971 -0.005296584162697649 -0.015658518258306803 0.0022114161806106336 -0.04261850947756195 11.10600958677561 -0.023778685998149758 -0.045301939132308414 0.001517550743448106 -0.01030035330107975 -0.042230846452347745 -0.018700581791471545 -0.04691908638336659 -0.03374068621352021 4.762122973848911 -0.037713340740267984 0.01901414515661571 -0.02409808784264455 0.008513583206590998 0.000252912695386631 -0.030073886160942684 -0.011839189772832825 0.020574062315731216 -5.613470199446733 -0.04369998166320105 0.024795375961493706 -6.747169309944665 0.024997504986038366 -0.006814234487533921 -6.741865564968798 -0.028054467833418535 0.02988067786709972 -0.031010062926389283 0.012603592047013317 -0.03981505219661925 8.035193625785217 3.4893010723167937 -19.22060616420515 0.0007969722435622284 10.40395498446861 -0.0017837446666499196 -5.614432136931822 -15.6567914823424 3.2070834164033175 0.012188569036175281 0.008410526806820934 0.02518883269568493 -0.018111661933263763 4.668915364017084 0.01716980464073648 12.443035116540557 -8.27389289488593 6.916413380743434 -0.014848349034886722 46.345548728399905 -0.009197054485212734 -4.3586445413203565 -14.79057123625095 -3.833354502852883 0.030170335213033476 0.04873617250111779 -0.009128790898555271 0.004322629674352739 -10.737254382628228 -0.036600393141312706 
0.04523022747699623 -0.011045145273402479 0.021575804005550522 -0.0020510293973076874 -0.029303840210556827 -0.04847171976138345 -5.065712277784264 7.545406415210095 -0.46257382255816337 -0.7636582742781459 2.841583080794284 0.36829465834970265 -1.012738517717991 -0.11387842761180546 -1.3514641995542365 -1.314431323690532 0.33898530662730497 -0.9961880383979399 -0.6988419993853461 8.980237760969676 1.9322679682789192 -0.09923778740063476 -0.5759112606967337 1.166582942889924 -0.507000858020504 -14.417237617882758 0.20179078078576998 2.2739705885382926 0.35174919584856523 -8.363805987979417 65.55205806865757 -3.957060714756888 46.34489583801214 37.47357486426912 11.406561844058473 103.55480390380356 29.719083155055117 0.3935260437809611 -14.546780268104422 4.545279620269187 -0.108826118702264 -1.6136386285217699 -0.037315311578030835 0.002668475085636637 -56.247956129345155 0.03428567846769058 0.033792833471519255 -56.18976133224538 -38.78528300062232 -0.035359525329074395 0.020274053975447247 -0.03808482440061155 -0.016987573904930862 -0.03420747086928491 -0.02483048364253182 0.033767623539207904 -0.04249647508189955 -36.66617391166212 -0.03171691739400755 0.003186859113543682 0.006336989773962641 0.025029970494079977 -0.0011554978886616552 -0.006344421909577845 -0.010339122837923343 0.014088728841757608 -19.74726828874952 -0.02472398933464025 0.03051730127064477 0.01862493446591345 0.004018399875352224 -0.007559713122934367 -0.04123084168510827 0.027724433046656463 0.003281348358232604 24.077731751832253 0.024673605522140398 0.008411578696024366 28.871856045237077 -0.011708636862520844 -0.03339864188703768 28.82205551524722 0.02797402245819644 0.037481301528601484 -0.08515682169604472 0.49795714036103095 7.648625453730293 -59.87520801185025 20.29183779805071 -40.98617289864355 -32.94644173809259 10.693894411254458 -104.65347480559984 -22.28691205760787 -5.803289028224282 3.588405155454993 -0.48343153548868567 0.02237485104344407 -8.160087390140337 0.0467701308697223 0.04234582331734023 44.59904693533948 0.03817462954171904 0.04700151040054436 44.57512171656123 12.493706741545287 -0.03146689158646835 -0.049820343153053816 -0.03281811903854273 0.016630673817223402 0.043922134470894686 -0.049218216358664156 0.012647151062883994 -0.005809957907002239 11.07111993696667 -0.028946121556910502 -0.006853857435044274 -0.03804736169009063 0.039402699053997056 0.022376590660144663 -0.02923183686743391 0.00393143282054057 0.013475902672914668 4.729791147544971 0.03506813866226586 -0.03730067565740433 0.012812869292969289 -0.012243438946680514 -0.023529548174334284 -0.019159578282445737 0.042991606424785424 -0.03088813106205977 -5.604060326835064 -0.0246882687371641 -0.018810265493671714 -6.748975063501167 -0.034180418728809635 0.005743068605889269 -6.678372761730076 0.028473173935636444 -0.007989609002927238 -0.023604214211988692 -0.010933249555361417 -0.003915610387019432 8.014041134312246 3.461054534631349 -19.241298692822863 -0.04556242863023859 10.357321061173812 0.02335844960183795 -5.573667795015423 -15.62221388663411 3.2206066841674033 -0.0032124129048322013 0.008526201059630848 0.015255289008629519 -0.03769617464047854 4.679767727395787 -0.0029111058358145783 12.507163595040536 -8.244638456466575 6.9218171721337045 -0.01682948816465048 46.382223243085136 0.03703620747562288 -4.297376626942085 -14.780375764111417 -3.8551161782037315 0.027569590499210195 0.04875702289745311 0.0061961796052635515 -0.04592594931465228 -10.74106232986238 -0.024911512018615484 
